<?xml version="1.0" encoding="UTF-8"?>
<svg version="1.1" xmlns="http://www.w3.org/2000/svg" width="153" height="153">
<path d="M0 0 C3.93711437 -0.14492719 7.87354625 -0.23394537 11.8125 -0.3125 C13.49182617 -0.3753418 13.49182617 -0.3753418 15.20507812 -0.43945312 C16.81479492 -0.46362305 16.81479492 -0.46362305 18.45703125 -0.48828125 C19.44678955 -0.51446533 20.43654785 -0.54064941 21.45629883 -0.56762695 C24 0 24 0 25.6887207 2.18676758 C26.12144287 3.11513428 26.55416504 4.04350098 27 5 C27.41942871 5.8765625 27.83885742 6.753125 28.27099609 7.65625 C28.68430176 8.5946875 29.09760742 9.533125 29.5234375 10.5 C29.98500244 11.54655762 30.44656738 12.59311523 30.92211914 13.67138672 C31.40156982 14.7698291 31.88102051 15.86827148 32.375 17 C32.86669678 18.12035645 33.35839355 19.24071289 33.86499023 20.39501953 C36.79708519 27.11605065 39.60715419 33.84396671 42.09765625 40.7421875 C42.99822407 43.22083038 42.99822407 43.22083038 45 46 C49.19074664 37.14191199 53.10145975 28.18186059 56.92749023 19.16137695 C57.29688721 18.292146 57.66628418 17.42291504 58.046875 16.52734375 C58.37526367 15.75124756 58.70365234 14.97515137 59.04199219 14.17553711 C59.96465478 12.08026535 60.95790578 10.03811141 62 8 C62.99 8 63.98 8 65 8 C64.45145387 13.76640068 62.8146894 18.40934094 60.5 23.6953125 C60.14841827 24.51646545 59.79683655 25.33761841 59.43460083 26.18365479 C58.29758331 28.83422586 57.14891324 31.47956647 56 34.125 C55.21258938 35.95490135 54.42597062 37.78514364 53.64013672 39.61572266 C51.75580521 44.00102519 49.86301414 48.38260704 47.96716309 52.76293945 C46.35054428 56.50219936 44.74681241 60.24694254 43.14526367 63.99267578 C42.4740053 65.56006969 41.79976856 67.12619198 41.12231445 68.69091797 C39.07266262 73.43395526 37.0996436 78.20293301 35.16015625 82.9921875 C34.66692871 84.19568848 34.17370117 85.39918945 33.66552734 86.63916016 C32.69879795 89.00089251 31.74417189 91.36762469 30.80322266 93.73974609 C30.36671387 94.80016113 29.93020508 95.86057617 29.48046875 96.953125 C28.90655396 98.37866699 28.90655396 98.37866699 28.32104492 99.83300781 C27 102 27 102 24.8449707 102.81542969 C24.23613037 102.87633789 23.62729004 102.93724609 23 103 C22.505 102.01 22.505 102.01 22 101 C22.85546875 99.10253906 22.85546875 99.10253906 24.1875 96.765625 C30.27018693 85.44161279 30.27018693 85.44161279 29.7734375 73.03515625 C27.98515109 68.36208149 25.77457713 63.94433136 23.37597656 59.55737305 C18.7807157 51.01667795 15.19119922 41.90961965 11.34326172 33.01196289 C10.50234681 31.06792539 9.65948566 29.12474026 8.81640625 27.18164062 C7.72300314 24.6603173 6.63637778 22.13623189 5.5546875 19.60986328 C4.53476056 17.24167237 3.49879289 14.88031213 2.4453125 12.52685547 C1.97867187 11.4648291 1.51203125 10.40280273 1.03125 9.30859375 C0.61423828 8.37716553 0.19722656 7.4457373 -0.23242188 6.48608398 C-1.05833753 3.81105246 -0.97125693 2.58434525 0 0 Z M5 5 C8.47912847 14.2283722 12.22259344 23.28229431 16.1875 32.3125 C20.91604733 43.11742377 25.53145765 53.95623325 29.9284668 64.90161133 C30.30656494 65.8273999 30.68466309 66.75318848 31.07421875 67.70703125 C31.39994873 68.5163208 31.72567871 69.32561035 32.0612793 70.15942383 C32.86131984 72.17799214 32.86131984 72.17799214 35 73 C39.27684154 66.80081505 42.65646176 60.66101252 43 53 C40.71051044 43.06156276 35.69775597 33.99304136 31.01904297 24.99804688 C27.67041151 18.48725917 24.88045681 11.72730875 22 5 C16.39 5 10.78 5 5 5 Z " fill="#ADADAD" transform="translate(21,36)"/>
<path d="M0 0 C0.99 0 1.98 0 3 0 C2.46181906 5.04259954 1.33395548 9.07892772 -0.73828125 13.69921875 C-1.01484558 14.32311996 -1.29140991 14.94702118 -1.57635498 15.58982849 C-2.17094213 16.92855791 -2.76947543 18.26554051 -3.37161255 19.60089111 C-4.65873485 22.45534604 -5.92671684 25.31818093 -7.1962738 28.18048096 C-7.84853802 29.65029686 -8.50183398 31.11965533 -9.15614319 32.58856201 C-12.19145253 39.40604573 -15.13699708 46.25962877 -18.0625 53.125 C-22.42814514 63.34654696 -26.8273926 73.55300662 -31.25 83.75 C-31.54093536 84.42081604 -31.83187073 85.09163208 -32.13162231 85.78277588 C-33.75363007 89.52219145 -35.37645121 93.26125326 -37 97 C-34.05270463 98.15811388 -34.05270463 98.15811388 -31 98 C-30.63777344 96.82308594 -30.27554688 95.64617187 -29.90234375 94.43359375 C-27.57677644 87.45961976 -24.52281719 80.78359887 -21.5625 74.0625 C-20.41584066 71.45014721 -19.2714372 68.83681718 -18.12890625 66.22265625 C-17.8526239 65.59063797 -17.57634155 64.95861969 -17.29168701 64.30744934 C-15.43610916 60.04566576 -13.66719684 55.75822572 -11.96362305 51.43383789 C-6.69462634 38.12585002 -1.12328367 24.93702662 5 12 C5.96195163 9.89748503 6.9204402 7.79338122 7.875 5.6875 C8.28492188 4.78386719 8.69484375 3.88023438 9.1171875 2.94921875 C9.40851563 2.30597656 9.69984375 1.66273437 10 1 C11.32 1 12.64 1 14 1 C13.44787734 7.10402278 10.88044536 12.18273899 8.375 17.6875 C7.36550112 19.94325648 6.35778854 22.19981295 5.3515625 24.45703125 C5.08351807 25.05692871 4.81547363 25.65682617 4.53930664 26.27490234 C1.19556691 33.77352101 -2.02404743 41.32516813 -5.25 48.875 C-5.87914358 50.3451712 -6.50837586 51.81530446 -7.13769531 53.28540039 C-10.16021888 60.34817791 -13.17682331 67.41346937 -16.18981934 74.48031616 C-17.58143206 77.74314618 -18.97484653 81.00520502 -20.36853027 84.26715088 C-21.36113636 86.59252175 -22.351 88.91904773 -23.34082031 91.24560547 C-23.94321468 92.65598629 -24.54574614 94.06630857 -25.1484375 95.4765625 C-25.42374298 96.12582703 -25.69904846 96.77509155 -25.98269653 97.44403076 C-27.88614525 101.88614525 -27.88614525 101.88614525 -29 103 C-31.18639453 103.07258946 -33.37500389 103.08373783 -35.5625 103.0625 C-36.76003906 103.05347656 -37.95757812 103.04445313 -39.19140625 103.03515625 C-40.58166016 103.01775391 -40.58166016 103.01775391 -42 103 C-43.18775632 98.86566776 -42.85112108 96.85508462 -40.93359375 93.0390625 C-40.46550293 92.07387695 -39.99741211 91.10869141 -39.51513672 90.11425781 C-39.0151416 89.08655273 -38.51514648 88.05884766 -38 87 C-37.04191309 84.84621265 -36.09570372 82.68711063 -35.16015625 80.5234375 C-34.66169189 79.37496338 -34.16322754 78.22648926 -33.6496582 77.04321289 C-33.125896 75.83270264 -32.60213379 74.62219238 -32.0625 73.375 C-31.78642914 72.73770966 -31.51035828 72.10041931 -31.22592163 71.44381714 C-26.70485018 61.00442758 -22.24645935 50.53914112 -17.8125 40.0625 C-13.63550153 30.19470509 -9.44630014 20.33287549 -5.1875 10.5 C-4.77282471 9.53843994 -4.35814941 8.57687988 -3.9309082 7.58618164 C-3.36762817 6.29055298 -3.36762817 6.29055298 -2.79296875 4.96875 C-2.30606567 3.84629883 -2.30606567 3.84629883 -1.80932617 2.70117188 C-1 1 -1 1 0 0 Z " fill="#656565" transform="translate(107,36)"/>
<path d="M0 0 C0.99 0 1.98 0 3 0 C2.53775304 6.93370437 -0.22980635 12.66037555 -3.0625 18.9375 C-3.53494141 20.00291016 -4.00738281 21.06832031 -4.49414062 22.16601562 C-5.65501576 24.78091618 -6.8237919 27.39196942 -8 30 C-5.69 30.66 -3.38 31.32 -1 32 C-1.58967148 36.7777571 -3.0187548 40.83960047 -4.96484375 45.203125 C-5.26975739 45.90200333 -5.57467102 46.60088165 -5.88882446 47.32093811 C-6.89904523 49.6333059 -7.91839181 51.9415371 -8.9375 54.25 C-10.01968659 56.72198858 -11.09937175 59.19506064 -12.17900085 61.66816711 C-12.93694447 63.40392817 -13.69567762 65.13934466 -14.45515442 66.87443542 C-18.88266967 76.99541983 -23.22150137 87.15418678 -27.5625 97.3125 C-32.65680618 109.23131647 -37.7827017 121.13443787 -43 133 C-44.32 133 -45.64 133 -47 133 C-46.36418226 129.14957548 -45.2208119 125.87461548 -43.6640625 122.30078125 C-43.18283936 121.18823975 -42.70161621 120.07569824 -42.20581055 118.92944336 C-41.68414307 117.73585205 -41.16247559 116.54226074 -40.625 115.3125 C-39.79854569 113.40622876 -38.9738942 111.49918374 -38.14927673 109.59211731 C-37.58641107 108.290758 -37.02298049 106.98964288 -36.45899963 105.68876648 C-33.82961884 99.62134204 -31.25401475 93.53176373 -28.6875 87.4375 C-25.4860882 79.84640033 -22.26153092 72.26579541 -19.01171875 64.6953125 C-18.66930649 63.89752884 -18.32689423 63.09974518 -17.97410583 62.27778625 C-16.27200916 58.31318766 -14.56810534 54.34937578 -12.86206055 50.38647461 C-12.23874418 48.93604605 -11.615452 47.4856071 -10.9921875 46.03515625 C-10.7041777 45.36763336 -10.41616791 44.70011047 -10.11943054 44.01235962 C-8.98093867 41.36065663 -7.91315381 38.73946143 -7 36 C-19.54 36 -32.08 36 -45 36 C-45.33 34.68 -45.66 33.36 -46 32 C-45 31 -45 31 -41.94897461 30.88647461 C-40.60008729 30.88663366 -39.25119386 30.89232388 -37.90234375 30.90234375 C-36.83905602 30.90446617 -36.83905602 30.90446617 -35.75428772 30.90663147 C-33.48198288 30.91224557 -31.20977525 30.92480037 -28.9375 30.9375 C-27.40039204 30.94251319 -25.86328255 30.94707641 -24.32617188 30.95117188 C-20.55074358 30.96221958 -16.77538829 30.97949359 -13 31 C-12.83056885 30.39414062 -12.6611377 29.78828125 -12.48657227 29.1640625 C-10.68505895 22.92089739 -8.48840645 16.97262327 -5.9375 11 C-5.58623047 10.15566406 -5.23496094 9.31132812 -4.87304688 8.44140625 C-2.25493022 2.25493022 -2.25493022 2.25493022 0 0 Z " fill="#828282" transform="translate(100,5)"/>
<path d="M0 0 C0.99 0 1.98 0 3 0 C2.45145032 5.76643806 0.81459017 10.40928155 -1.5 15.6953125 C-1.85185364 16.51746246 -2.20370728 17.33961243 -2.56622314 18.18667603 C-3.70252039 20.83644376 -4.85068875 23.48085405 -6 26.125 C-6.78283898 27.93886341 -7.56506455 29.75299169 -8.34667969 31.56738281 C-9.50414209 34.25342183 -10.66241428 36.9390841 -11.82440186 39.62316895 C-13.91338733 44.45245943 -15.96326882 49.29309038 -17.953125 54.1640625 C-18.35402344 55.13714355 -18.75492188 56.11022461 -19.16796875 57.11279297 C-19.86350669 58.80800977 -20.54925259 60.50729534 -21.22265625 62.21142578 C-23.08288955 66.690828 -24.80965815 69.25460361 -29 72 C-30.19696701 69.2120519 -31.38283014 66.42025583 -32.5625 63.625 C-32.90474609 62.8309375 -33.24699219 62.036875 -33.59960938 61.21875 C-33.91865234 60.45820312 -34.23769531 59.69765625 -34.56640625 58.9140625 C-34.86490479 58.2123291 -35.16340332 57.5105957 -35.47094727 56.78759766 C-36 55 -36 55 -35 53 C-31.79383026 56.62803418 -29.67396305 59.408335 -28 64 C-21.9249229 53.29537608 -21.9249229 53.29537608 -20.51171875 41.5703125 C-21.83611304 38.89116531 -23.34507861 36.48453133 -25 34 C-25.9375 30.1875 -25.9375 30.1875 -26.328125 28.3125 C-27.66058243 23.72636747 -29.85698655 19.40348347 -31.85546875 15.07421875 C-33 12 -33 12 -32 9 C-27.34764207 13.91217548 -25.15277965 18.88744892 -22.8125 25.1875 C-22.13449998 26.97379382 -21.45362898 28.75900128 -20.76953125 30.54296875 C-20.47667236 31.32696045 -20.18381348 32.11095215 -19.88208008 32.91870117 C-18.97449394 35.23981108 -18.97449394 35.23981108 -17 38 C-12.80925336 29.14191199 -8.89854025 20.18186059 -5.07250977 11.16137695 C-4.70311279 10.292146 -4.33371582 9.42291504 -3.953125 8.52734375 C-3.62473633 7.75124756 -3.29634766 6.97515137 -2.95800781 6.17553711 C-2.03534522 4.08026535 -1.04209422 2.03811141 0 0 Z " fill="#A6A6A6" transform="translate(83,44)"/>
<path d="M0 0 C0.99 0.33 1.98 0.66 3 1 C2.44787734 7.10402278 -0.11955464 12.18273899 -2.625 17.6875 C-3.63449888 19.94325648 -4.64221146 22.19981295 -5.6484375 24.45703125 C-5.91648193 25.05692871 -6.18452637 25.65682617 -6.46069336 26.27490234 C-9.80443309 33.77352101 -13.02404743 41.32516813 -16.25 48.875 C-16.87914358 50.3451712 -17.50837586 51.81530446 -18.13769531 53.28540039 C-21.16021888 60.34817791 -24.17682331 67.41346937 -27.18981934 74.48031616 C-28.58143206 77.74314618 -29.97484653 81.00520502 -31.36853027 84.26715088 C-32.36113636 86.59252175 -33.351 88.91904773 -34.34082031 91.24560547 C-34.94321468 92.65598629 -35.54574614 94.06630857 -36.1484375 95.4765625 C-36.42374298 96.12582703 -36.69904846 96.77509155 -36.98269653 97.44403076 C-38.88614525 101.88614525 -38.88614525 101.88614525 -40 103 C-42.18639453 103.07258946 -44.37500389 103.08373783 -46.5625 103.0625 C-47.76003906 103.05347656 -48.95757812 103.04445313 -50.19140625 103.03515625 C-51.58166016 103.01775391 -51.58166016 103.01775391 -53 103 C-53.58984375 100.64453125 -53.58984375 100.64453125 -54 98 C-52.5625 95.6875 -52.5625 95.6875 -51 94 C-51.33 95.98 -51.66 97.96 -52 100 C-48.04 100.33 -44.08 100.66 -40 101 C-39.2575 98.834375 -39.2575 98.834375 -38.5 96.625 C-38.2215625 95.81289062 -37.943125 95.00078125 -37.65625 94.1640625 C-36.90326695 92.05790758 -36.90326695 92.05790758 -37 90 C-37.99 90.495 -37.99 90.495 -39 91 C-36.78623805 83.96676942 -34.05443245 77.29768227 -31.0625 70.5625 C-28.2784668 64.26399011 -25.54801953 57.96139847 -23.01635742 51.55688477 C-17.71202896 38.21260611 -12.13546568 24.98308362 -6 12 C-4.65373072 9.01845255 -3.31431436 6.0339985 -1.98046875 3.046875 C-1 1 -1 1 0 0 Z " fill="#B7B7B7" transform="translate(118,36)"/>
<path d="M0 0 C0.99 0 1.98 0 3 0 C2.53775304 6.93370437 -0.22980635 12.66037555 -3.0625 18.9375 C-3.53494141 20.00291016 -4.00738281 21.06832031 -4.49414062 22.16601562 C-5.65501576 24.78091618 -6.8237919 27.39196942 -8 30 C-6.02 30.33 -4.04 30.66 -2 31 C-2.50712033 34.71888239 -3.11608215 37.73454239 -5 41 C-5.99 40.505 -5.99 40.505 -7 40 C-6.67 38.35 -6.34 36.7 -6 35 C-18.54 35 -31.08 35 -44 35 C-44 34.01 -44 33.02 -44 32 C-33.77 32 -23.54 32 -13 32 C-12.67 30.02 -12.34 28.04 -12 26 C-11.31904459 24.05707374 -10.57772652 22.13450528 -9.78515625 20.234375 C-9.12676758 18.65269531 -9.12676758 18.65269531 -8.45507812 17.0390625 C-7.76575195 15.41097656 -7.76575195 15.41097656 -7.0625 13.75 C-6.60681641 12.64914063 -6.15113281 11.54828125 -5.68164062 10.4140625 C-2.26127646 2.26127646 -2.26127646 2.26127646 0 0 Z " fill="#898989" transform="translate(100,5)"/>
<path d="M0 0 C1.34888732 0.00015905 2.69778075 0.00584927 4.04663086 0.01586914 C5.10991859 0.01799156 5.10991859 0.01799156 6.19468689 0.02015686 C8.46699173 0.02577096 10.73919936 0.03832576 13.01147461 0.05102539 C14.54858257 0.05603858 16.08569206 0.0606018 17.62280273 0.06469727 C21.39823103 0.07574497 25.17358632 0.09301898 28.94897461 0.11352539 C28.94897461 0.44352539 28.94897461 0.77352539 28.94897461 1.11352539 C18.71897461 1.11352539 8.48897461 1.11352539 -2.05102539 1.11352539 C-2.05102539 2.10352539 -2.05102539 3.09352539 -2.05102539 4.11352539 C10.48897461 4.11352539 23.02897461 4.11352539 35.94897461 4.11352539 C35.94897461 5.76352539 35.94897461 7.41352539 35.94897461 9.11352539 C38.0332567 7.0292433 38.82738824 3.79557974 39.94897461 1.11352539 C41.3247117 4.15023701 40.86506528 5.35150437 39.7331543 8.56176758 C39.12407905 9.93323134 38.50246147 11.2991686 37.87084961 12.66040039 C37.37998871 13.75544891 37.37998871 13.75544891 36.87921143 14.87261963 C35.82994172 17.20797836 34.76511461 19.5358265 33.69897461 21.86352539 C32.65029319 24.17825655 31.60491493 26.49443682 30.56158447 28.81158447 C29.91202935 30.25141784 29.25889601 31.68964452 28.60150146 33.12591553 C26.51119226 37.72392949 24.67937936 42.36784064 22.94897461 47.11352539 C21.98035184 43.73417693 22.02234141 42.13744506 23.38647461 38.86352539 C23.81766602 37.80391602 23.81766602 37.80391602 24.25756836 36.72290039 C24.48573242 36.19180664 24.71389648 35.66071289 24.94897461 35.11352539 C23.95897461 35.60852539 23.95897461 35.60852539 22.94897461 36.11352539 C24.9512002 28.79490844 27.58207009 21.92696697 30.63647461 14.98852539 C32.05959961 11.72977539 33.48272461 8.47102539 34.94897461 5.11352539 C22.40897461 5.11352539 9.86897461 5.11352539 -3.05102539 5.11352539 C-3.38102539 3.79352539 -3.71102539 2.47352539 -4.05102539 1.11352539 C-3.05102539 0.11352539 -3.05102539 0.11352539 0 0 Z " fill="#B1B1B1" transform="translate(58.051025390625,35.886474609375)"/>
<path d="M0 0 C0.99 0 1.98 0 3 0 C2.45980034 5.1392631 1.26470593 9.23629792 -0.84375 13.9453125 C-1.12910614 14.58971283 -1.41446228 15.23411316 -1.70846558 15.89804077 C-2.63110201 17.97730364 -3.56550026 20.05104589 -4.5 22.125 C-5.13720338 23.55620786 -5.77342833 24.98785172 -6.40869141 26.41992188 C-7.36292664 28.57058125 -8.31780064 30.72092953 -9.27603149 32.86981201 C-12.03393207 39.05513954 -14.71992041 45.26984027 -17.375 51.5 C-17.74947266 52.37672363 -18.12394531 53.25344727 -18.50976562 54.15673828 C-19.34103836 56.10398265 -20.17074018 58.05189756 -21 60 C-22.39214652 55.82356045 -20.70664266 53.16562207 -19.0625 49.3125 C-18.77181641 48.61060547 -18.48113281 47.90871094 -18.18164062 47.18554688 C-17.46289687 45.45349225 -16.73254669 43.72626219 -16 42 C-16.99 42.99 -17.98 43.98 -19 45 C-16.59046071 37.25505227 -13.53033907 29.81793747 -10.38427734 22.35107422 C-9.49694854 20.24274961 -8.61733592 18.13131701 -7.73828125 16.01953125 C-7.16973026 14.66386973 -6.60073538 13.30839427 -6.03125 11.953125 C-5.52142578 10.73786133 -5.01160156 9.52259766 -4.48632812 8.27050781 C-3.15035417 5.33083845 -1.89655156 2.61486738 0 0 Z " fill="#A9A9A9" transform="translate(107,36)"/>
<path d="M0 0 C2.82858266 3.36736031 4.4998253 6.87451958 6 11 C5.67 11.99 5.34 12.98 5 14 C4.34 13.34 3.68 12.68 3 12 C5.31 17.28 7.62 22.56 10 28 C10.99 27.01 11.98 26.02 13 25 C11.3847739 31.39937199 9.11475962 37.48756565 6.5625 43.5625 C6.27431396 44.27728516 5.98612793 44.99207031 5.68920898 45.72851562 C4.81640625 47.75390625 4.81640625 47.75390625 3 51 C0.88647461 51.70288086 0.88647461 51.70288086 -1 52 C-1.33 51.34 -1.66 50.68 -2 50 C-1.16040039 48.05493164 -1.16040039 48.05493164 0.15234375 45.66015625 C6.16953625 34.63996362 6.16953625 34.63996362 5.78515625 22.6328125 C4.41234701 19.35520278 2.73551144 16.3392697 0.96875 13.26171875 C-1.5580621 8.68934128 -1.12849938 4.97957659 0 0 Z " fill="#A4A4A4" transform="translate(45,87)"/>
<path d="M0 0 C0.99 0 1.98 0 3 0 C2.4473322 5.16667572 1.21334029 9.59293092 -0.80078125 14.39453125 C-1.07842819 15.06796066 -1.35607513 15.74139008 -1.64213562 16.43522644 C-2.22718324 17.84618509 -2.81650479 19.25537855 -3.40991211 20.6628418 C-4.31471749 22.8177813 -5.1958912 24.98143001 -6.07617188 27.14648438 C-6.64963349 28.52142151 -7.22445609 29.89579196 -7.80078125 31.26953125 C-8.06135818 31.91533646 -8.32193512 32.56114166 -8.59040833 33.22651672 C-9.79173366 36.02417434 -10.60465644 37.74470046 -13.19995117 39.4206543 C-14.09097534 39.70743042 -14.09097534 39.70743042 -15 40 C-13.92830038 30.86781316 -10.78931803 23.23129766 -6.9375 14.9375 C-6.37582782 13.70428795 -5.81527388 12.47056595 -5.25585938 11.23632812 C-1.56080163 3.12160326 -1.56080163 3.12160326 0 0 Z " fill="#969696" transform="translate(83,44)"/>
<path d="M0 0 C2.79872437 2.52788007 4.45773019 4.20411134 5 8 C5.66 8 6.32 8 7 8 C15.14893617 25.14893617 15.14893617 25.14893617 15 34 C13.21875 33.48828125 13.21875 33.48828125 11 32 C9.65256587 29.38491403 8.54586707 26.91908311 7.5 24.1875 C7.04935181 23.05139282 7.04935181 23.05139282 6.58959961 21.89233398 C0 5.00371046 0 5.00371046 0 0 Z " fill="#ABABAB" transform="translate(31,60)"/>
<path d="M0 0 C0.33 0 0.66 0 1 0 C1.28773432 4.79077635 0.44169975 8.00617556 -1.5 12.375 C-1.9640625 13.43460938 -2.428125 14.49421875 -2.90625 15.5859375 C-3.2671875 16.38257813 -3.628125 17.17921875 -4 18 C-2.02 18 -0.04 18 2 18 C2.37125 16.700625 2.37125 16.700625 2.75 15.375 C4.06778613 11.81697746 5.80186822 9.0773845 8 6 C9.11346788 8.80033839 9.03510273 9.90143703 8.00390625 12.796875 C6.66927083 15.53125 5.33463542 18.265625 4 21 C-0.29 21 -4.58 21 -9 21 C-7.26183077 13.68139272 -5.28388437 8.14845275 -1 2 C-0.67 1.34 -0.34 0.68 0 0 Z " fill="#6E6E6E" transform="translate(74,116)"/>
<path d="M0 0 C0.33 1.32 0.66 2.64 1 4 C1.33 3.67 1.66 3.34 2 3 C2.66 2.67 3.32 2.34 4 2 C2.00667932 8.39296661 -0.41474614 14.47046394 -3.1875 20.5625 C-3.55552734 21.38041016 -3.92355469 22.19832031 -4.30273438 23.04101562 C-5.19795013 25.02909218 -6.0984165 27.01480308 -7 29 C-8.32 29 -9.64 29 -11 29 C-10.35952645 25.16022316 -9.22822779 21.84403286 -7.71484375 18.26171875 C-7.04291992 16.66166992 -7.04291992 16.66166992 -6.35742188 15.02929688 C-5.88884766 13.92650391 -5.42027344 12.82371094 -4.9375 11.6875 C-4.46505859 10.56537109 -3.99261719 9.44324219 -3.50585938 8.28710938 C-2.34138677 5.52295723 -1.17263728 2.760696 0 0 Z " fill="#939393" transform="translate(64,109)"/>
<path d="M0 0 C1.36319077 4.08957231 -0.12484345 6.63831403 -1.6875 10.4375 C-1.94466797 11.10587891 -2.20183594 11.77425781 -2.46679688 12.46289062 C-4.06756166 16.43137138 -5.73589579 19.21946678 -9 22 C-10.19696701 19.2120519 -11.38283014 16.42025583 -12.5625 13.625 C-12.90474609 12.8309375 -13.24699219 12.036875 -13.59960938 11.21875 C-13.91865234 10.45820312 -14.23769531 9.69765625 -14.56640625 8.9140625 C-15.01415405 7.8614624 -15.01415405 7.8614624 -15.47094727 6.78759766 C-16 5 -16 5 -15 3 C-11.85014682 6.56430755 -9.4859916 9.40693504 -8 14 C-7.74605469 13.38511719 -7.49210937 12.77023438 -7.23046875 12.13671875 C-6.88628906 11.32847656 -6.54210938 10.52023438 -6.1875 9.6875 C-5.85105469 8.88699219 -5.51460937 8.08648437 -5.16796875 7.26171875 C-4.0093868 5.01817712 -2.82696405 3.7068349 -1 2 C-0.67 1.34 -0.34 0.68 0 0 Z " fill="#919191" transform="translate(63,94)"/>
<path d="M0 0 C0.495 0.99 0.495 0.99 1 2 C3.64 2 6.28 2 9 2 C8.125 7.75 8.125 7.75 7 10 C6.34 9.67 5.68 9.34 5 9 C5.33 7.35 5.66 5.7 6 4 C-6.54 4 -19.08 4 -32 4 C-32 3.34 -32 2.68 -32 2 C-21.44 2 -10.88 2 0 2 C0 1.34 0 0.68 0 0 Z " fill="#5F5F5F" transform="translate(88,36)"/>
<path d="M0 0 C0.99 0 1.98 0 3 0 C2.48377778 6.10453258 0.51417404 10.91478414 -2.0625 16.4375 C-2.43955078 17.26443359 -2.81660156 18.09136719 -3.20507812 18.94335938 C-4.12874358 20.96606979 -5.06046954 22.98462257 -6 25 C-8.55989686 17.32030942 -5.51508284 10.11411064 -2.15625 3.15234375 C-1 1 -1 1 0 0 Z " fill="#979797" transform="translate(100,5)"/>
<path d="M0 0 C0.99 0.33 1.98 0.66 3 1 C2.23614116 7.26364246 0.61472247 12.58591764 -4 17 C-4.33 17.86625 -4.66 18.7325 -5 19.625 C-5.33 20.40875 -5.66 21.1925 -6 22 C-6.99 22.33 -7.98 22.66 -9 23 C-8.47729394 17.4099491 -6.96866857 13.14165179 -4.5 8.125 C-4.17902344 7.44953125 -3.85804687 6.7740625 -3.52734375 6.078125 C-1.17353403 1.17353403 -1.17353403 1.17353403 0 0 Z " fill="#919191" transform="translate(118,36)"/>
<path d="M0 0 C0.33 0.66 0.66 1.32 1 2 C0.24434474 4.13943613 -0.61888259 6.24115398 -1.52734375 8.3203125 C-1.79511124 8.93897186 -2.06287872 9.55763123 -2.33876038 10.19503784 C-3.19771364 12.17495926 -4.0674454 14.1499353 -4.9375 16.125 C-5.52089705 17.46453268 -6.10358859 18.80437287 -6.68554688 20.14453125 C-8.11552122 23.43329819 -9.55520086 26.71771433 -11 30 C-12.31223496 26.06329512 -11.24296256 23.87511856 -10 20 C-10.66 20.33 -11.32 20.66 -12 21 C-11.57316761 19.41375765 -11.13303842 17.8310902 -10.6875 16.25 C-10.32205078 14.92742187 -10.32205078 14.92742187 -9.94921875 13.578125 C-8.97874669 10.94227495 -7.78994356 9.14592674 -6 7 C-5.01 7.33 -4.02 7.66 -3 8 C-2.690625 6.865625 -2.38125 5.73125 -2.0625 4.5625 C-1 1 -1 1 0 0 Z " fill="#A5A5A5" transform="translate(115,50)"/>
<path d="M0 0 C7.59 0 15.18 0 23 0 C23.66 1.98 24.32 3.96 25 6 C24.34 6 23.68 6 23 6 C22.67 4.68 22.34 3.36 22 2 C15.73 2 9.46 2 3 2 C3.99 4.64 4.98 7.28 6 10 C5.67 11.32 5.34 12.64 5 14 C4.15973604 12.23244474 3.32801278 10.46082737 2.5 8.6875 C2.0359375 7.70136719 1.571875 6.71523438 1.09375 5.69921875 C0 3 0 3 0 0 Z " fill="#5A5A5A" transform="translate(22,38)"/>
<path d="M0 0 C1.21474475 3.64423425 0.70193132 4.28488743 -0.87109375 7.66796875 C-1.28037109 8.56064453 -1.68964844 9.45332031 -2.11132812 10.37304688 C-2.54896484 11.30181641 -2.98660156 12.23058594 -3.4375 13.1875 C-3.87126953 14.12787109 -4.30503906 15.06824219 -4.75195312 16.03710938 C-5.82600195 18.36224805 -6.90894188 20.6828064 -8 23 C-8.66 22.67 -9.32 22.34 -10 22 C-11.32 24.31 -12.64 26.62 -14 29 C-15 27 -15 27 -14.28735352 24.84521484 C-13.90506592 23.97590332 -13.52277832 23.1065918 -13.12890625 22.2109375 C-12.71962891 21.26992187 -12.31035156 20.32890625 -11.88867188 19.359375 C-11.45103516 18.37453125 -11.01339844 17.3896875 -10.5625 16.375 C-10.12873047 15.38242188 -9.69496094 14.38984375 -9.24804688 13.3671875 C-8.17229113 10.90831723 -7.08935634 8.45286789 -6 6 C-5.67 7.32 -5.34 8.64 -5 10 C-3.35 6.7 -1.7 3.4 0 0 Z " fill="#A2A2A2" transform="translate(84,96)"/>
<path d="M0 0 C3.08899205 3.65149369 4.85120936 7.72184897 6.75 12.0625 C7.07871094 12.78244141 7.40742187 13.50238281 7.74609375 14.24414062 C10.12037628 19.63887117 10.12037628 19.63887117 9 23 C7.68 20.69 6.36 18.38 5 16 C5.66 18.97 6.32 21.94 7 25 C0.73067614 17.53651922 0 9.42825996 0 0 Z " fill="#ACACAC" transform="translate(27,45)"/>
<path d="M0 0 C5.20380728 3.32465465 7.17803951 7.2822346 9 13 C9.84586503 16.98082243 10.48103024 20.96432725 11 25 C8.50674341 22.76800086 7.24774005 20.73181538 5.95703125 17.65625 C5.60576172 16.82222656 5.25449219 15.98820312 4.89257812 15.12890625 C4.35793945 13.82759766 4.35793945 13.82759766 3.8125 12.5 C3.26045898 11.19869141 3.26045898 11.19869141 2.69726562 9.87109375 C0 3.39565457 0 3.39565457 0 0 Z " fill="#6C6C6C" transform="translate(50,53)"/>
<path d="M0 0 C1.21719978 3.65159935 0.33227928 4.8055491 -1.2421875 8.16015625 C-2.15829278 10.17896075 -2.15829278 10.17896075 -2.5 13.25 C-3.07233941 16.39786676 -3.72651088 16.90139466 -6 19 C-7.04622875 20.97620986 -8.05439935 22.9737129 -9 25 C-10.85447412 21.29105177 -8.32439923 17.04387906 -7.11328125 13.27734375 C-3.59041804 2.90652889 -3.59041804 2.90652889 0 0 Z " fill="#6C6C6C" transform="translate(83,69)"/>
<path d="M0 0 C1.28497537 3.85492611 0.4052209 5.40346836 -0.9375 9.1875 C-1.31777344 10.27417969 -1.69804688 11.36085938 -2.08984375 12.48046875 C-2.39019531 13.31191406 -2.69054687 14.14335938 -3 15 C-3.66 15 -4.32 15 -5 15 C-5.66 16.98 -6.32 18.96 -7 21 C-7.66 21 -8.32 21 -9 21 C-4.89320388 3.26213592 -4.89320388 3.26213592 0 0 Z " fill="#787878" transform="translate(105,69)"/>
<path d="M0 0 C0.66 0 1.32 0 2 0 C1.42460686 5.20285068 -0.29418893 9.23956036 -2.5625 13.875 C-2.89185547 14.56335938 -3.22121094 15.25171875 -3.56054688 15.9609375 C-4.36695361 17.6438733 -5.18254494 19.32240293 -6 21 C-6.33 21 -6.66 21 -7 21 C-6.72876813 12.86304398 -3.91083499 7.06820635 0 0 Z " fill="#7E7E7E" transform="translate(94,92)"/>
<path d="M0 0 C2.82858266 3.36736031 4.4998253 6.87451958 6 11 C5.67 11.99 5.34 12.98 5 14 C4.34 13.34 3.68 12.68 3 12 C3.30035156 12.68707031 3.60070313 13.37414062 3.91015625 14.08203125 C4.48056641 15.43361328 4.48056641 15.43361328 5.0625 16.8125 C5.44535156 17.70582031 5.82820313 18.59914063 6.22265625 19.51953125 C7 22 7 22 6 25 C-2.22095672 8.29157175 -2.22095672 8.29157175 0 0 Z " fill="#B2B2B2" transform="translate(45,87)"/>
<path d="M0 0 C2.12837267 3.77561896 1.99305711 5.7569378 1 10 C0 13 0 13 -1.875 14 C-2.57625 14.33 -3.2775 14.66 -4 15 C-5.02175754 15.97775842 -6.02537586 16.97525233 -7 18 C-5.06375702 11.79522136 -2.74390859 5.89174281 0 0 Z " fill="#898989" transform="translate(86,109)"/>
<path d="M0 0 C7.92 0 15.84 0 24 0 C24 0.33 24 0.66 24 1 C13.11 1.495 13.11 1.495 2 2 C2.87388055 7.24328331 3.96378172 10.36906764 6.2578125 14.94921875 C7 17 7 17 6 20 C4.79816525 17.42249905 3.61343114 14.83928838 2.4375 12.25 C2.09525391 11.52039062 1.75300781 10.79078125 1.40039062 10.0390625 C1.08134766 9.33007812 0.76230469 8.62109375 0.43359375 7.890625 C-0.01415405 6.91657715 -0.01415405 6.91657715 -0.47094727 5.92285156 C-1 4 -1 4 0 0 Z " fill="#CDCDCD" transform="translate(21,36)"/>
<path d="M0 0 C1.36319077 4.08957231 -0.12484345 6.63831403 -1.6875 10.4375 C-1.94466797 11.10587891 -2.20183594 11.77425781 -2.46679688 12.46289062 C-4.06756166 16.43137138 -5.73589579 19.21946678 -9 22 C-9 20.68 -9 19.36 -9 18 C-8.34 18 -7.68 18 -7 18 C-6.90203125 17.26394531 -6.8040625 16.52789062 -6.703125 15.76953125 C-5.83545326 10.10722512 -5.19123684 6.19123684 -1 2 C-0.67 1.34 -0.34 0.68 0 0 Z " fill="#525252" transform="translate(63,94)"/>
<path d="M0 0 C0.33 0 0.66 0 1 0 C1.27771418 4.67948398 0.54837397 7.67583336 -1.5 11.875 C-1.9640625 12.84179688 -2.428125 13.80859375 -2.90625 14.8046875 C-3.2671875 15.52914062 -3.628125 16.25359375 -4 17 C-4.33 16.01 -4.66 15.02 -5 14 C-5.66 14 -6.32 14 -7 14 C-5.23570801 9.02790438 -2.6060834 4.56561939 0 0 Z " fill="#7B7B7B" transform="translate(74,116)"/>
<path d="M0 0 C0.99 0 1.98 0 3 0 C4.79275866 3.11910856 5.34290718 5.67682428 5.625 9.25 C5.69976562 10.14203125 5.77453125 11.0340625 5.8515625 11.953125 C5.90054688 12.62859375 5.94953125 13.3040625 6 14 C4.078125 13.3828125 4.078125 13.3828125 2 12 C1.171875 9.1796875 1.171875 9.1796875 0.75 5.875 C0.60046875 4.77929688 0.4509375 3.68359375 0.296875 2.5546875 C0.19890625 1.71164063 0.1009375 0.86859375 0 0 Z " fill="#828282" transform="translate(40,80)"/>
<path d="M0 0 C0.33 0.66 0.66 1.32 1 2 C0.26821134 4.07196631 -0.55899003 6.1108552 -1.4375 8.125 C-1.91058594 9.22070312 -2.38367188 10.31640625 -2.87109375 11.4453125 C-3.24363281 12.28835937 -3.61617188 13.13140625 -4 14 C-4.99 14 -5.98 14 -7 14 C-6.40546697 4.40546697 -6.40546697 4.40546697 -3 1 C-3.33 3.31 -3.66 5.62 -4 8 C-2.68 5.36 -1.36 2.72 0 0 Z " fill="#9E9E9E" transform="translate(78,85)"/>
<path d="M0 0 C1.30394672 3.91184017 0.37057358 5.30210541 -1.1875 9.0625 C-1.61417969 10.12597656 -2.04085937 11.18945312 -2.48046875 12.28515625 C-4.08353641 15.14924885 -4.95421713 15.94995494 -8 17 C-7.14041084 11.32671156 -5.44061576 5.83507725 -1 2 C-0.67 1.34 -0.34 0.68 0 0 Z " fill="#737373" transform="translate(91,76)"/>
<path d="M0 0 C1.24153433 3.724603 0.47452539 4.47752269 -1 8 C-1.12375 9.051875 -1.2475 10.10375 -1.375 11.1875 C-1.58125 12.115625 -1.7875 13.04375 -2 14 C-4.0390625 15.17578125 -4.0390625 15.17578125 -6 16 C-4.44191344 4.29384966 -4.44191344 4.29384966 0 0 Z " fill="#696969" transform="translate(74,68)"/>
<path d="M0 0 C-1.49170266 4.9723422 -3.60457417 9.41845739 -6 14 C-6.33 14 -6.66 14 -7 14 C-6.88490339 12.58249437 -6.75746342 11.16598831 -6.625 9.75 C-6.55539063 8.96109375 -6.48578125 8.1721875 -6.4140625 7.359375 C-5.9787895 4.87914019 -5.31630309 3.14017625 -4 1 C-2 0 -2 0 0 0 Z " fill="#747474" transform="translate(109,38)"/>
<path d="M0 0 C1.50559539 1.96382007 2.89131683 3.78263366 4 6 C4.99 4.68 5.98 3.36 7 2 C7 3.65 7 5.3 7 7 C7.66 6.67 8.32 6.34 9 6 C8.01 8.97 7.02 11.94 6 15 C5.67 15 5.34 15 5 15 C5 13.02 5 11.04 5 9 C4.34 9 3.68 9 3 9 C0.56839395 5.63316085 0 4.26649636 0 0 Z " fill="#AEAEAE" transform="translate(62,76)"/>
<path d="M0 0 C0.33 1.32 0.66 2.64 1 4 C1.226875 4.845625 1.45375 5.69125 1.6875 6.5625 C2 9 2 9 0 12 C-1.32 11.67 -2.64 11.34 -4 11 C-2.68 7.37 -1.36 3.74 0 0 Z " fill="#A7A7A7" transform="translate(47,127)"/>
<path d="M0 0 C0.33 1.32 0.66 2.64 1 4 C1.33 3.67 1.66 3.34 2 3 C2.66 2.67 3.32 2.34 4 2 C3.54917531 3.46067199 3.08906463 4.91848032 2.625 6.375 C2.36976562 7.18710938 2.11453125 7.99921875 1.8515625 8.8359375 C1 11 1 11 -1 13 C-2.5029278 10.46875317 -3.2006987 8.79254012 -2.46484375 5.88671875 C-1.7028501 3.89135862 -0.89496636 1.93909378 0 0 Z " fill="#9D9D9D" transform="translate(64,109)"/>
<path d="M0 0 C1.23400845 4.93603381 0.25683943 6.27175626 -1.9375 10.75 C-2.50339844 11.92046875 -3.06929688 13.0909375 -3.65234375 14.296875 C-4.09707031 15.18890625 -4.54179688 16.0809375 -5 17 C-5.33 15.68 -5.66 14.36 -6 13 C-6.99 13.495 -6.99 13.495 -8 14 C-7.67 12.35 -7.34 10.7 -7 9 C-5.68 9 -4.36 9 -3 9 C-2.01 6.03 -1.02 3.06 0 0 Z " fill="#AEAEAE" transform="translate(98,37)"/>
<path d="M0 0 C3.93208182 3.25413668 5.9145134 7.05951428 7 12 C6.67 12.99 6.34 13.98 6 15 C3.36634013 10.0778687 1.35524176 5.42096702 0 0 Z " fill="#505050" transform="translate(31,60)"/>
<path d="M0 0 C0.99 0 1.98 0 3 0 C2.01 2.97 1.02 5.94 0 9 C-0.66 9 -1.32 9 -2 9 C-1.125 2.25 -1.125 2.25 0 0 Z " fill="#6F6F6F" transform="translate(56,128)"/>
<path d="M0 0 C2.17766075 4.35532149 2.03039555 5.46625958 1 10 C0.34 9.34 -0.32 8.68 -1 8 C-1.99 8.495 -1.99 8.495 -3 9 C-2.01 6.03 -1.02 3.06 0 0 Z " fill="#A1A1A1" transform="translate(86,109)"/>
<path d="M0 0 C1.90185343 2.79684328 1.99271185 4.10385609 1.75 7.5625 C1 11 1 11 -1 14 C-1.02705729 12.22925083 -1.04642195 10.45838289 -1.0625 8.6875 C-1.07410156 7.70136719 -1.08570312 6.71523438 -1.09765625 5.69921875 C-1 3 -1 3 0 0 Z " fill="#A0A0A0" transform="translate(101,48)"/>
<path d="M0 0 C0.93045933 2.55144824 1.08564091 3.74006478 0.22265625 6.359375 C-0.16019531 7.14828125 -0.54304688 7.9371875 -0.9375 8.75 C-1.50791016 9.94882813 -1.50791016 9.94882813 -2.08984375 11.171875 C-2.39019531 11.77515625 -2.69054687 12.3784375 -3 13 C-4.45995282 8.62014153 -2.7957564 5.67993018 -0.875 1.625 C-0.58625 1.08875 -0.2975 0.5525 0 0 Z " fill="#434343" transform="translate(82,122)"/>
<path d="M0 0 C0.33 0.66 0.66 1.32 1 2 C0.67 2.66 0.34 3.32 0 4 C-0.66 4 -1.32 4 -2 4 C-2.66 5.98 -3.32 7.96 -4 10 C-4.66 10 -5.32 10 -6 10 C-4.52307692 3.47692308 -4.52307692 3.47692308 -1.875 1.0625 C-1.25625 0.711875 -0.6375 0.36125 0 0 Z " fill="#676767" transform="translate(102,80)"/>
<path d="M0 0 C0.66 0 1.32 0 2 0 C2.36923077 5.53846154 2.36923077 5.53846154 0.5 7.875 C-0.2425 8.431875 -0.2425 8.431875 -1 9 C-2.25541557 5.23375329 -1.37061958 3.62811066 0 0 Z " fill="#646464" transform="translate(94,67)"/>
<path d="M0 0 C0.66 0 1.32 0 2 0 C1.48964169 4.3890815 0.47785723 7.33708062 -2 11 C-3 9 -3 9 -2.44140625 6.8359375 C-2.15136719 6.02382812 -1.86132812 5.21171875 -1.5625 4.375 C-1.27503906 3.55773437 -0.98757812 2.74046875 -0.69140625 1.8984375 C-0.46324219 1.27195312 -0.23507813 0.64546875 0 0 Z " fill="#484848" transform="translate(94,92)"/>
<path d="M0 0 C0.99 0 1.98 0 3 0 C3.1875 2.8125 3.1875 2.8125 3 6 C2.01 6.99 1.02 7.98 0 9 C0 6.03 0 3.06 0 0 Z " fill="#363636" transform="translate(64,85)"/>
<path d="M0 0 C1 3 1 3 0.22265625 5.04296875 C-0.16019531 5.75066406 -0.54304688 6.45835937 -0.9375 7.1875 C-1.31777344 7.90292969 -1.69804688 8.61835938 -2.08984375 9.35546875 C-2.54037109 10.16951172 -2.54037109 10.16951172 -3 11 C-3.33 10.34 -3.66 9.68 -4 9 C-2.79149247 5.92379901 -1.47778215 2.9555643 0 0 Z " fill="#434343" transform="translate(51,122)"/>
<path d="M0 0 C3.12270126 2.51830747 3.94523098 3.7261549 4.75 7.75 C4.8325 8.8225 4.915 9.895 5 11 C2.03947516 7.63576723 1.07710178 4.30840713 0 0 Z " fill="#404040" transform="translate(47,97)"/>
</svg>
